<svg id="visual" viewBox="0 0 900 600" width="900" height="600" xmlns="http://www.w3.org/2000/svg" xmlns:xlink="http://www.w3.org/1999/xlink" version="1.1"><rect x="0" y="0" width="900" height="600" fill="#E1BFFA"></rect><path d="M0 365L21.5 367.7C43 370.3 86 375.7 128.8 386.3C171.7 397 214.3 413 257.2 423.7C300 434.3 343 439.7 385.8 441C428.7 442.3 471.3 439.7 514.2 434.7C557 429.7 600 422.3 642.8 410.5C685.7 398.7 728.3 382.3 771.2 374.7C814 367 857 368 878.5 368.5L900 369L900 601L878.5 601C857 601 814 601 771.2 601C728.3 601 685.7 601 642.8 601C600 601 557 601 514.2 601C471.3 601 428.7 601 385.8 601C343 601 300 601 257.2 601C214.3 601 171.7 601 128.8 601C86 601 43 601 21.5 601L0 601Z" fill="#a78cfa"></path><path d="M0 472L21.5 462.8C43 453.7 86 435.3 128.8 434C171.7 432.7 214.3 448.3 257.2 446C300 443.7 343 423.3 385.8 422.5C428.7 421.7 471.3 440.3 514.2 449.5C557 458.7 600 458.3 642.8 450C685.7 441.7 728.3 425.3 771.2 414.8C814 404.3 857 399.7 878.5 397.3L900 395L900 601L878.5 601C857 601 814 601 771.2 601C728.3 601 685.7 601 642.8 601C600 601 557 601 514.2 601C471.3 601 428.7 601 385.8 601C343 601 300 601 257.2 601C214.3 601 171.7 601 128.8 601C86 601 43 601 21.5 601L0 601Z" fill="#a17ffb"></path><path d="M0 463L21.5 462.2C43 461.3 86 459.7 128.8 456.2C171.7 452.7 214.3 447.3 257.2 452.7C300 458 343 474 385.8 481.7C428.7 489.3 471.3 488.7 514.2 490.2C557 491.7 600 495.3 642.8 495.2C685.7 495 728.3 491 771.2 481.5C814 472 857 457 878.5 449.5L900 442L900 601L878.5 601C857 601 814 601 771.2 601C728.3 601 685.7 601 642.8 601C600 601 557 601 514.2 601C471.3 601 428.7 601 385.8 601C343 601 300 601 257.2 601C214.3 601 171.7 601 128.8 601C86 601 43 601 21.5 601L0 601Z" fill="#9c72fb"></path><path d="M0 483L21.5 492C43 501 86 519 128.8 524.8C171.7 530.7 214.3 524.3 257.2 521.7C300 519 343 520 385.8 513.8C428.7 507.7 471.3 494.3 514.2 491.8C557 489.3 600 497.7 642.8 502.3C685.7 507 728.3 508 771.2 508.5C814 509 857 509 878.5 509L900 509L900 601L878.5 601C857 601 814 601 771.2 601C728.3 601 685.7 601 642.8 601C600 601 557 601 514.2 601C471.3 601 428.7 601 385.8 601C343 601 300 601 257.2 601C214.3 601 171.7 601 128.8 601C86 601 43 601 21.5 601L0 601Z" fill="#9864fb"></path><path d="M0 546L21.5 547.2C43 548.3 86 550.7 128.8 550.2C171.7 549.7 214.3 546.3 257.2 549C300 551.7 343 560.3 385.8 563.7C428.7 567 471.3 565 514.2 565.7C557 566.3 600 569.7 642.8 566.3C685.7 563 728.3 553 771.2 548.8C814 544.7 857 546.3 878.5 547.2L900 548L900 601L878.5 601C857 601 814 601 771.2 601C728.3 601 685.7 601 642.8 601C600 601 557 601 514.2 601C471.3 601 428.7 601 385.8 601C343 601 300 601 257.2 601C214.3 601 171.7 601 128.8 601C86 601 43 601 21.5 601L0 601Z" fill="#9454fa"></path></svg>